HIERARCHY
ROOT RootJoint
{
    OFFSET   0.000000   0.000000   0.000000
    CHANNELS 6 Xposition Yposition Zposition Xrotation Yrotation Zrotation
    JOINT pelvis_lowerback
    {
        OFFSET   0.000000   0.093605   0.000000
        CHANNELS 3 Xrotation Yrotation Zrotation
        JOINT lowerback_torso
        {
            OFFSET   0.000000   0.100000   0.000000
            CHANNELS 3 Xrotation Yrotation Zrotation
            JOINT torso_head
            {
                OFFSET   0.000000   0.282350   0.000000
                CHANNELS 3 Xrotation Yrotation Zrotation
                End Site
                {
                    OFFSET   0.000000   0.192650   0.000000
                }
            }
            JOINT rTorso_Clavicle
            {
                OFFSET  -0.001000   0.157500   0.000000
                CHANNELS 3 Xrotation Yrotation Zrotation
                JOINT rShoulder
                {
                    OFFSET  -0.117647   0.000000   0.000000
                    CHANNELS 3 Xrotation Yrotation Zrotation
                    JOINT rElbow
                    {
                        OFFSET  -0.245000   0.000000   0.000000
                        CHANNELS 3 Xrotation Yrotation Zrotation
                        JOINT rWrist
                        {
                            OFFSET  -0.240000   0.000000   0.000000
                            CHANNELS 3 Xrotation Yrotation Zrotation
                            End Site
                            {
                                OFFSET  -0.116353  -0.002500   0.000000
                            }
                        }
                    }
                }
            }
            JOINT lTorso_Clavicle
            {
                OFFSET   0.001000   0.157500   0.000000
                CHANNELS 3 Xrotation Yrotation Zrotation
                JOINT lShoulder
                {
                    OFFSET   0.117647   0.000000   0.000000
                    CHANNELS 3 Xrotation Yrotation Zrotation
                    JOINT lElbow
                    {
                        OFFSET   0.245000   0.000000   0.000000
                        CHANNELS 3 Xrotation Yrotation Zrotation
                        JOINT lWrist
                        {
                            OFFSET   0.240000   0.000000   0.000000
                            CHANNELS 3 Xrotation Yrotation Zrotation
                            End Site
                            {
                                OFFSET   0.116353  -0.002500   0.000000
                            }
                        }
                    }
                }
            }
        }
    }
    JOINT rHip
    {
        OFFSET  -0.100000  -0.051395   0.000000
        CHANNELS 3 Xrotation Yrotation Zrotation
        JOINT rKnee
        {
            OFFSET   0.000000  -0.410000   0.000000
            CHANNELS 3 Xrotation Yrotation Zrotation
            JOINT rAnkle
            {
                OFFSET   0.000000  -0.390000   0.000000
                CHANNELS 3 Xrotation Yrotation Zrotation
                JOINT rToeJoint
                {
                    OFFSET   0.000000  -0.050000   0.130000
                    CHANNELS 3 Xrotation Yrotation Zrotation
                    End Site
                    {
                        OFFSET  -0.010000   0.002000   0.060000
                    }
                }
            }
        }
    }
    JOINT lHip
    {
        OFFSET   0.100000  -0.051395   0.000000
        CHANNELS 3 Xrotation Yrotation Zrotation
        JOINT lKnee
        {
            OFFSET   0.000000  -0.410000   0.000000
            CHANNELS 3 Xrotation Yrotation Zrotation
            JOINT lAnkle
            {
                OFFSET   0.000000  -0.390000   0.000000
                CHANNELS 3 Xrotation Yrotation Zrotation
                JOINT lToeJoint
                {
                    OFFSET   0.000000  -0.050000   0.130000
                    CHANNELS 3 Xrotation Yrotation Zrotation
                    End Site
                    {
                        OFFSET   0.010000   0.002000   0.060000
                    }
                }
            }
        }
    }
}
MOTION
Frames: 10
Frame Time:   0.008333
 -2.391883   0.905348   3.337351  -5.115522  -5.345838   0.484717   6.529172   3.812089  -1.109358   0.914500  -0.904160   1.283451  -2.674268   2.388037   0.461406   2.823663   0.706488   9.511429   6.051726  14.557985  48.056328  -0.001575  17.465965  -0.001201   4.719791   1.996493   5.827620   3.214642   0.143345  -8.247859  10.705508 -12.233048 -46.872068  -0.003672 -17.231999  -0.001630   6.762680  -3.431307  -4.846597   9.762521  -1.919062  -3.117081  24.886088   0.014352   0.010847 -13.687264   0.022088   0.922176 -15.098230  -0.005549   0.007662 -10.366267  -0.756382  -0.456986   8.930904   0.002163   0.000944   3.406204   2.574563   0.186696   1.211034   0.000093  -0.000216
 -2.393395   0.904848   3.329383  -4.952010  -5.595778   0.421953   6.716289   3.839161  -1.004433   0.887694  -0.847079   1.302268  -2.737826   2.335259   0.446143   2.698819   0.897872   9.466423   5.799249  14.893548  47.822185  -0.001671  17.857934  -0.001684   4.707289   1.971063   5.790732   3.251959   0.306453  -8.339507  10.776461 -12.160326 -47.027697  -0.003835 -16.886389  -0.001926   6.826432  -3.457070  -4.829060   9.537597  -1.939337  -2.866523  24.024550   0.013708   0.010137 -13.702002  -0.083509   0.542771 -17.178914  -0.008323   0.011178 -10.799677  -0.463748  -0.142306   8.556959   0.002323   0.000481   3.144305   2.756251  -0.021317   1.202624   0.000068  -0.000193
 -2.394822   0.904295   3.321387  -4.802417  -5.829956   0.368122   6.915470   3.854423  -0.883490   0.873027  -0.793431   1.319764  -2.794655   2.279813   0.438077   2.558141   1.090545   9.403229   5.546854  15.220353  47.587398  -0.001728  18.235035  -0.002012   4.691486   1.998980   5.716358   3.299313   0.462530  -8.450523  10.849128 -12.092201 -47.198037  -0.003964 -16.560217  -0.002178   6.891418  -3.461857  -4.858223   9.285557  -1.981956  -2.620694  23.234126   0.013035   0.009504 -13.722667  -0.218289   0.177671 -19.149617  -0.010587   0.014344 -11.202929  -0.179160   0.155932   8.146224   0.002485   0.000064   2.860990   2.933409  -0.220012   1.169553   0.000031  -0.000234
 -2.396228   0.903375   3.313502  -4.668261  -6.054474   0.270423   7.099428   3.877177  -0.718717   0.868205  -0.734425   1.354579  -2.843002   2.227278   0.435699   2.420097   1.271205   9.313998   5.308805  15.527698  47.355263  -0.001781  18.590935  -0.002208   4.673662   2.053266   5.627918   3.355337   0.617364  -8.556603  10.923879 -12.025969 -47.372545  -0.003947 -16.255243  -0.002287   6.954716  -3.465407  -4.933334   9.037679  -2.027937  -2.330210  22.491796   0.012365   0.008935 -13.773114  -0.345041  -0.158172 -21.255419  -0.012505   0.017236 -11.559956   0.081636   0.492573   7.665355   0.002711  -0.000300   2.506778   3.100090  -0.398314   1.133073   0.000002  -0.000269
 -2.397702   0.903138   3.305923  -4.592893  -6.138774   0.042905   7.283846   3.867045  -0.455612   0.882983  -0.700223   1.445468  -2.888169   2.176428   0.442721   2.302591   1.429844   9.266711   5.099923  15.801906  47.128063  -0.001606  18.911386  -0.002363   4.660883   2.064000   5.494041   3.408511   0.756591  -8.722827  10.991366 -11.967723 -47.553346  -0.003987 -15.965515  -0.002189   7.019600  -3.437526  -5.001876   8.831177  -2.088270  -1.911099  21.918722   0.011110   0.007728 -14.380528  -0.468131  -0.325470 -19.274410  -0.008844   0.009183 -11.858444   0.297653   0.944473   7.219171   0.002864  -0.001034   2.205070   3.247224  -0.552649   1.107509  -0.000010  -0.000294
 -2.399149   0.903174   3.298604  -4.533910  -6.172031  -0.184974   7.446988   3.862908  -0.213465   0.899278  -0.667930   1.543033  -2.929570   2.129257   0.454145   2.204450   1.571144   9.227647   4.911107  16.056880  46.933507  -0.001387  19.210139  -0.002503   4.648776   2.066474   5.396941   3.463524   0.891606  -8.874688  11.056754 -11.913449 -47.732663  -0.003936 -15.696750  -0.001942   7.080827  -3.419584  -5.099854   8.631623  -2.151570  -1.486234  21.361493   0.009987   0.006526 -14.756608  -0.570308  -0.509059 -17.229959  -0.006267   0.003663 -12.123921   0.516513   1.349724   6.786336   0.002816  -0.001782   1.895282   3.395049  -0.706763   1.083290  -0.000027  -0.000319
 -2.400540   0.903344   3.291485  -4.486766  -6.149204  -0.386592   7.598217   3.857506  -0.003528   0.913311  -0.639651   1.630454  -2.969253   2.085241   0.464223   2.118605   1.700057   9.193333   4.738284  16.294554  46.760269  -0.001182  19.488849  -0.002640   4.636811   2.067808   5.327314   3.515851   1.019184  -9.007461  11.118985 -11.861839 -47.898207  -0.003796 -15.446426  -0.001608   7.138831  -3.408183  -5.203526   8.439387  -2.191882  -1.084943  20.824855   0.008893   0.005192 -15.012029  -0.644921  -0.708468 -15.659248  -0.004634   0.001535 -12.375552   0.722305   1.684455   6.383689   0.002625  -0.002432   1.605855   3.533406  -0.850285   1.056705  -0.000048  -0.000352
 -2.401892   0.903924   3.284585  -4.468271  -6.046071  -0.561897   7.759062   3.816454   0.149990   0.930268  -0.668748   1.718543  -3.002056   1.943749   0.557671   2.048675   1.825459   9.174531   4.584203  16.520044  46.598489  -0.001055  19.838193  -0.002883   4.650505   2.048208   5.284001   3.567016   1.151150  -9.152147  11.243146 -11.861424 -48.040940  -0.003805 -15.194883  -0.001512   7.200218  -3.392887  -5.281402   8.319072  -2.209494  -0.702505  20.201460   0.007954   0.003574 -14.975374  -0.821928  -0.730418 -14.480205  -0.005118  -0.000246 -12.720894   0.978011   1.966818   6.481164   0.002026  -0.001597   1.059393   3.793975  -0.938933   0.981167  -0.000089  -0.000721
 -2.403169   0.904744   3.277882  -4.456692  -5.951663  -0.691570   7.907088   3.782467   0.253740   0.948480  -0.697575   1.781114  -3.031161   1.807026   0.648855   1.983013   1.942637   9.155750   4.437992  16.734780  46.455134  -0.000991  20.169611  -0.003002   4.661170   2.063350   5.256651   3.622222   1.278941  -9.288667  11.364349 -11.858738 -48.179682  -0.003784 -14.958198  -0.001395   7.262099  -3.369947  -5.380434   8.199849  -2.212979  -0.377660  19.582416   0.007145   0.002236 -14.809374  -0.984358  -0.780676 -13.523726  -0.005032  -0.001072 -13.032625   1.226563   2.198134   6.638681   0.001513  -0.000745   0.551570   4.040811  -1.018796   0.904331  -0.000114  -0.000997
 -2.404372   0.905685   3.271327  -4.444373  -5.864624  -0.784150   8.042918   3.753811   0.323833   0.962995  -0.721955   1.818945  -3.058354   1.679082   0.731547   1.920362   2.052855   9.131272   4.300432  16.937086  46.321530  -0.000984  20.480863  -0.003035   4.669909   2.091849   5.235003   3.676728   1.400597  -9.413620  11.479412 -11.855246 -48.311388  -0.003707 -14.737045  -0.001260   7.321543  -3.347414  -5.489732   8.070665  -2.211559  -0.100491  18.980437   0.006442   0.001182 -14.570543  -1.138769  -0.848361 -12.712005  -0.004681  -0.001475 -13.311795   1.459033   2.393581   6.802602   0.001100  -0.000085   0.078569   4.271672  -1.091417   0.834478  -0.000120  -0.001151
